<svg class="diagram-root" style="background: #f5f6f6" xmlns="http://www.w3.org/2000/svg" xmlns:xlink="http://www.w3.org/1999/xlink"><style>.diagram-root { font-family: "Helvetica Neue", sans-serif; font-size: 12px; } .t { overflow: visible; } .t-bg { y: 40; fill: #fff;   } .th { fill: #005aa0;   } .tht { fill: #fff; font-size: 14px;  } .tf { fill: #323c46; overflow: visible; } .tf.pk { fill: #005aa0; font-weight: bold; } .tf.fk { font-weight: bold; } .ty { fill: #adb1b5; font-weight: normal; text-anchor: end; } .r { fill: transparent; stroke: #c3c3c3; stroke-width: 1; } .l { stroke: 1; } .i { fill: #c2c7ce; stroke: #c2c7ce; } .i.ix { fill: #afb3b6; stroke: #000; } .fa { fill: transparent; overflow: visible; } .fa .bg.hover { fill: #f7f7f7; } .c { cy: 12; r: 4; stroke: #d2d2dc; fill: #d2d2dc; } .hr { fill: transparent; stroke: #323c46; stroke-opacity: 0.035; stroke-width: 13; } .dc { stroke: #fa5a3c; fill: #fa5a3c; } .x { stroke: white; stroke-width: 1; } .hl .th { fill: #1b9bff; } .hl .tht {  } .fhl .bg { fill: #e7f4ff; } .fhls .bg {  } .r.hl { stroke: #1b9bff; } .dim { opacity: 0.25; }</style><g class="drawing-wrapper" transform="translate(-11.33333333333335, 10.000000000000004) scale(1,1)"><g class="rs"><path d="M 250 152 m -1, 0 a 1,1 0 1,0 2,0 a 1,1 0 1,0 -2,0 M 250 152 m -0.5, 0 a 0.5,0.5 0 1,0 1,0 a 0.5,0.5 0 1,0 -1,0  M250 152 L250 152 238 152 M 250 158 m -1, 0 a 1,1 0 1,0 2,0 a 1,1 0 1,0 -2,0 M 250 158 m -0.5, 0 a 0.5,0.5 0 1,0 1,0 a 0.5,0.5 0 1,0 -1,0  M250 158 L250 158 243 152 250 146 M 250 146 m -1, 0 a 1,1 0 1,0 2,0 a 1,1 0 1,0 -2,0 M 250 146 m -0.5, 0 a 0.5,0.5 0 1,0 1,0 a 0.5,0.5 0 1,0 -1,0  M238 152 Q 220.26 152, 202.52 118.5 T 167.04 85 M 155.04 85 m -1, 0 a 1,1 0 1,0 2,0 a 1,1 0 1,0 -2,0 M 155.04 85 m -0.5, 0 a 0.5,0.5 0 1,0 1,0 a 0.5,0.5 0 1,0 -1,0  M155.04 85 L155.04 85 167.04 85 M161.04 91 L161.04 91 161.04 79" id="h3044691987" class="r"></path><path d="M 250 177 m -1, 0 a 1,1 0 1,0 2,0 a 1,1 0 1,0 -2,0 M 250 177 m -0.5, 0 a 0.5,0.5 0 1,0 1,0 a 0.5,0.5 0 1,0 -1,0  M250 177 L250 177 238 177 M 250 183 m -1, 0 a 1,1 0 1,0 2,0 a 1,1 0 1,0 -2,0 M 250 183 m -0.5, 0 a 0.5,0.5 0 1,0 1,0 a 0.5,0.5 0 1,0 -1,0  M250 183 L250 183 243 177 250 171 M 250 171 m -1, 0 a 1,1 0 1,0 2,0 a 1,1 0 1,0 -2,0 M 250 171 m -0.5, 0 a 0.5,0.5 0 1,0 1,0 a 0.5,0.5 0 1,0 -1,0  M238 177 Q 217.34 177, 196.68 201 T 155.35 225 M 143.35 225 m -1, 0 a 1,1 0 1,0 2,0 a 1,1 0 1,0 -2,0 M 143.35 225 m -0.5, 0 a 0.5,0.5 0 1,0 1,0 a 0.5,0.5 0 1,0 -1,0  M143.35 225 L143.35 225 155.35 225 M149.35 231 L149.35 231 149.35 219" id="h631425171" class="r"></path></g><g class="hrs"></g><g class="ts"><svg width="104.02" height="100" x="39.33" y="168" id="h2347650020" class="t"><rect height="40" width="104.02" class="th"></rect><text x="13" y="25" class="tht">galaxies</text><rect height="60" width="104.02" class="t-bg"></rect><text x="13" y="61" class="tf pk">id<tspan x="91.02" class="ty">serial</tspan></text><path d="M7,14A2,2 0 0,1 5,12A2,2 0 0,1 7,10A2,2 0 0,1 9,12A2,2 0 0,1 7,14M12.65,10C11.83,7.67 9.61,6 7, 6A6, 6 0 0, 0 1, 12A6, 6 0 0, 0 7, 18C9.61, 18 11.83, 16.33 12.65, 14H17V18H21V14H23V10H12.65Z" class="i pk" transform="translate(42.344218749999996, 48) scale(0.65)"></path><text x="13" y="86" class="tf">name<tspan x="91.02" class="ty">text</tspan></text></svg><svg width="212.1" height="200" x="250" y="20" id="h3417360113" class="t"><rect height="40" width="212.1" class="th"></rect><text x="13" y="25" class="tht">planets</text><rect height="160" width="212.1" class="t-bg"></rect><text x="13" y="61" class="tf pk">id<tspan x="199.1" class="ty">serial</tspan></text><path d="M7,14A2,2 0 0,1 5,12A2,2 0 0,1 7,10A2,2 0 0,1 9,12A2,2 0 0,1 7,14M12.65,10C11.83,7.67 9.61,6 7, 6A6, 6 0 0, 0 1, 12A6, 6 0 0, 0 7, 18C9.61, 18 11.83, 16.33 12.65, 14H17V18H21V14H23V10H12.65Z" class="i pk" transform="translate(150.42421875, 48) scale(0.65)"></path><text x="13" y="86" class="tf">name<tspan x="199.1" class="ty">text</tspan></text><text x="13" y="111" class="tf">orbital_period_in_years<tspan x="199.1" class="ty">decimal</tspan></text><text x="13" y="136" class="tf fk">primary_body_id<tspan x="199.1" class="ty">int</tspan></text><text x="13" y="161" class="tf fk">galaxy_id<tspan x="199.1" class="ty">int</tspan></text><text x="13" y="186" class="tf">moons<tspan x="199.1" class="ty">text[]</tspan></text></svg><svg width="121.71" height="100" x="33.33333333333335" y="27.999999999999996" id="h2438161976" class="t"><rect height="40" width="121.71" class="th"></rect><text x="13" y="25" class="tht">primary_bodies</text><rect height="60" width="121.71" class="t-bg"></rect><text x="13" y="61" class="tf pk">id<tspan x="108.71" class="ty">serial</tspan></text><path d="M7,14A2,2 0 0,1 5,12A2,2 0 0,1 7,10A2,2 0 0,1 9,12A2,2 0 0,1 7,14M12.65,10C11.83,7.67 9.61,6 7, 6A6, 6 0 0, 0 1, 12A6, 6 0 0, 0 7, 18C9.61, 18 11.83, 16.33 12.65, 14H17V18H21V14H23V10H12.65Z" class="i pk" transform="translate(60.034218749999994, 48) scale(0.65)"></path><text x="13" y="86" class="tf">name<tspan x="108.71" class="ty">text</tspan></text></svg></g></g><text class="qdbd-link" x="10" y="20">www.quickdatabasediagrams.com</text></svg>