<svg class="diagram-root" style="background: #f5f6f6" xmlns="http://www.w3.org/2000/svg" xmlns:xlink="http://www.w3.org/1999/xlink"><style>.diagram-root { font-family: "Helvetica Neue", sans-serif; font-size: 12px; } .t { overflow: visible; } .t-bg { y: 40; fill: #fff;   } .th { fill: #005aa0;   } .tht { fill: #fff; font-size: 14px;  } .tf { fill: #323c46; overflow: visible; } .tf.pk { fill: #005aa0; font-weight: bold; } .tf.fk { font-weight: bold; } .ty { fill: #adb1b5; font-weight: normal; text-anchor: end; } .r { fill: transparent; stroke: #c3c3c3; stroke-width: 1; } .l { stroke: 1; } .i { fill: #c2c7ce; stroke: #c2c7ce; } .i.ix { fill: #afb3b6; stroke: #000; } .fa { fill: transparent; overflow: visible; } .fa .bg.hover { fill: #f7f7f7; } .c { cy: 12; r: 4; stroke: #d2d2dc; fill: #d2d2dc; } .hr { fill: transparent; stroke: #323c46; stroke-opacity: 0.035; stroke-width: 13; } .dc { stroke: #fa5a3c; fill: #fa5a3c; } .x { stroke: white; stroke-width: 1; } .hl .th { fill: #1b9bff; } .hl .tht {  } .fhl .bg { fill: #e7f4ff; } .fhls .bg {  } .r.hl { stroke: #1b9bff; } .dim { opacity: 0.25; }</style><g class="drawing-wrapper" transform="translate(-56.00000000000003, 2.6700000000000266) scale(1,1)"><g class="rs"><path d="M 87 263.66999999999996 m -1, 0 a 1,1 0 1,0 2,0 a 1,1 0 1,0 -2,0 M 87 263.66999999999996 m -0.5, 0 a 0.5,0.5 0 1,0 1,0 a 0.5,0.5 0 1,0 -1,0  M87 263.66999999999996 L87 263.66999999999996 75 263.66999999999996 M 87 269.66999999999996 m -1, 0 a 1,1 0 1,0 2,0 a 1,1 0 1,0 -2,0 M 87 269.66999999999996 m -0.5, 0 a 0.5,0.5 0 1,0 1,0 a 0.5,0.5 0 1,0 -1,0  M87 269.66999999999996 L87 269.66999999999996 80 263.66999999999996 87 257.66999999999996 M 87 257.66999999999996 m -1, 0 a 1,1 0 1,0 2,0 a 1,1 0 1,0 -2,0 M 87 257.66999999999996 m -0.5, 0 a 0.5,0.5 0 1,0 1,0 a 0.5,0.5 0 1,0 -1,0  M75 263.66999999999996 C 10.6 263.66999999999996, 16 84.33, 66 84.33 M 78 84.33 m -1, 0 a 1,1 0 1,0 2,0 a 1,1 0 1,0 -2,0 M 78 84.33 m -0.5, 0 a 0.5,0.5 0 1,0 1,0 a 0.5,0.5 0 1,0 -1,0  M78 84.33 L78 84.33 66 84.33 M72 90.33 L72 90.33 72 78.33" id="h3060770519" class="r"></path><path d="M 439.33 162 m -1, 0 a 1,1 0 1,0 2,0 a 1,1 0 1,0 -2,0 M 439.33 162 m -0.5, 0 a 0.5,0.5 0 1,0 1,0 a 0.5,0.5 0 1,0 -1,0  M439.33 162 L439.33 162 427.33 162 M 439.33 168 m -1, 0 a 1,1 0 1,0 2,0 a 1,1 0 1,0 -2,0 M 439.33 168 m -0.5, 0 a 0.5,0.5 0 1,0 1,0 a 0.5,0.5 0 1,0 -1,0  M439.33 168 L439.33 168 432.33 162 439.33 156 M 439.33 156 m -1, 0 a 1,1 0 1,0 2,0 a 1,1 0 1,0 -2,0 M 439.33 156 m -0.5, 0 a 0.5,0.5 0 1,0 1,0 a 0.5,0.5 0 1,0 -1,0  M427.33 162 C 95.74599999999998 162, 201.33999999999997 97, 251.33999999999997 97 M 263.34 97 m -1, 0 a 1,1 0 1,0 2,0 a 1,1 0 1,0 -2,0 M 263.34 97 m -0.5, 0 a 0.5,0.5 0 1,0 1,0 a 0.5,0.5 0 1,0 -1,0  M263.34 97 L263.34 97 251.33999999999997 97 M257.34 103 L257.34 103 257.34 91" id="h1072332735" class="r"></path><path d="M 439.33 262 m -1, 0 a 1,1 0 1,0 2,0 a 1,1 0 1,0 -2,0 M 439.33 262 m -0.5, 0 a 0.5,0.5 0 1,0 1,0 a 0.5,0.5 0 1,0 -1,0  M439.33 262 L439.33 262 427.33 262 M 439.33 268 m -1, 0 a 1,1 0 1,0 2,0 a 1,1 0 1,0 -2,0 M 439.33 268 m -0.5, 0 a 0.5,0.5 0 1,0 1,0 a 0.5,0.5 0 1,0 -1,0  M439.33 268 L439.33 268 432.33 262 439.33 256 M 439.33 256 m -1, 0 a 1,1 0 1,0 2,0 a 1,1 0 1,0 -2,0 M 439.33 256 m -0.5, 0 a 0.5,0.5 0 1,0 1,0 a 0.5,0.5 0 1,0 -1,0  M427.33 262 Q 373.76 262, 320.19 237.83 T 213.04 213.67 M 201.04 213.67 m -1, 0 a 1,1 0 1,0 2,0 a 1,1 0 1,0 -2,0 M 201.04 213.67 m -0.5, 0 a 0.5,0.5 0 1,0 1,0 a 0.5,0.5 0 1,0 -1,0  M201.04 213.67 L201.04 213.67 213.04 213.67 M207.04 219.67 L207.04 219.67 207.04 207.67" id="h1342847065" class="r"></path><path d="M 439.33 287 m -1, 0 a 1,1 0 1,0 2,0 a 1,1 0 1,0 -2,0 M 439.33 287 m -0.5, 0 a 0.5,0.5 0 1,0 1,0 a 0.5,0.5 0 1,0 -1,0  M439.33 287 L439.33 287 427.33 287 M 439.33 293 m -1, 0 a 1,1 0 1,0 2,0 a 1,1 0 1,0 -2,0 M 439.33 293 m -0.5, 0 a 0.5,0.5 0 1,0 1,0 a 0.5,0.5 0 1,0 -1,0  M439.33 293 L439.33 293 432.33 287 439.33 281 M 439.33 281 m -1, 0 a 1,1 0 1,0 2,0 a 1,1 0 1,0 -2,0 M 439.33 281 m -0.5, 0 a 0.5,0.5 0 1,0 1,0 a 0.5,0.5 0 1,0 -1,0  M427.33 287 Q 373.76 287, 320.19 250.33 T 213.04 213.67 M 201.04 213.67 m -1, 0 a 1,1 0 1,0 2,0 a 1,1 0 1,0 -2,0 M 201.04 213.67 m -0.5, 0 a 0.5,0.5 0 1,0 1,0 a 0.5,0.5 0 1,0 -1,0  M201.04 213.67 L201.04 213.67 213.04 213.67 M207.04 219.67 L207.04 219.67 207.04 207.67" id="h3637150493" class="r"></path></g><g class="hrs"></g><g class="ts"><svg width="104.69" height="100" x="78" y="27.33" id="h413949273" class="t"><rect height="40" width="104.69" class="th"></rect><text x="13" y="25" class="tht">countries</text><rect height="60" width="104.69" class="t-bg"></rect><text x="13" y="61" class="tf pk">id<tspan x="91.69" class="ty">serial</tspan></text><path d="M7,14A2,2 0 0,1 5,12A2,2 0 0,1 7,10A2,2 0 0,1 9,12A2,2 0 0,1 7,14M12.65,10C11.83,7.67 9.61,6 7, 6A6, 6 0 0, 0 1, 12A6, 6 0 0, 0 7, 18C9.61, 18 11.83, 16.33 12.65, 14H17V18H21V14H23V10H12.65Z" class="i pk" transform="translate(43.01421875, 48) scale(0.65)"></path><text x="13" y="86" class="tf">country<tspan x="91.69" class="ty">text</tspan></text></svg><svg width="114.04" height="125" x="87" y="156.67" id="h23586223" class="t"><rect height="40" width="114.04" class="th"></rect><text x="13" y="25" class="tht">cities</text><rect height="85" width="114.04" class="t-bg"></rect><text x="13" y="61" class="tf pk">id<tspan x="101.04" class="ty">serial</tspan></text><path d="M7,14A2,2 0 0,1 5,12A2,2 0 0,1 7,10A2,2 0 0,1 9,12A2,2 0 0,1 7,14M12.65,10C11.83,7.67 9.61,6 7, 6A6, 6 0 0, 0 1, 12A6, 6 0 0, 0 7, 18C9.61, 18 11.83, 16.33 12.65, 14H17V18H21V14H23V10H12.65Z" class="i pk" transform="translate(52.364218750000006, 48) scale(0.65)"></path><text x="13" y="86" class="tf">city<tspan x="101.04" class="ty">text</tspan></text><text x="13" y="111" class="tf fk">country_id<tspan x="101.04" class="ty">int</tspan></text></svg><svg width="104.02" height="100" x="263.34" y="40" id="h1701999969" class="t"><rect height="40" width="104.02" class="th"></rect><text x="13" y="25" class="tht">airlines</text><rect height="60" width="104.02" class="t-bg"></rect><text x="13" y="61" class="tf pk">id<tspan x="91.02" class="ty">serial</tspan></text><path d="M7,14A2,2 0 0,1 5,12A2,2 0 0,1 7,10A2,2 0 0,1 9,12A2,2 0 0,1 7,14M12.65,10C11.83,7.67 9.61,6 7, 6A6, 6 0 0, 0 1, 12A6, 6 0 0, 0 7, 18C9.61, 18 11.83, 16.33 12.65, 14H17V18H21V14H23V10H12.65Z" class="i pk" transform="translate(42.344218749999996, 48) scale(0.65)"></path><text x="13" y="86" class="tf">airline<tspan x="91.02" class="ty">text</tspan></text></svg><svg width="152.72" height="275" x="439.33" y="30" id="h382903295" class="t"><rect height="40" width="152.72" class="th"></rect><text x="13" y="25" class="tht">passengers</text><rect height="235" width="152.72" class="t-bg"></rect><text x="13" y="61" class="tf pk">id<tspan x="139.72" class="ty">serial</tspan></text><path d="M7,14A2,2 0 0,1 5,12A2,2 0 0,1 7,10A2,2 0 0,1 9,12A2,2 0 0,1 7,14M12.65,10C11.83,7.67 9.61,6 7, 6A6, 6 0 0, 0 1, 12A6, 6 0 0, 0 7, 18C9.61, 18 11.83, 16.33 12.65, 14H17V18H21V14H23V10H12.65Z" class="i pk" transform="translate(91.04421875, 48) scale(0.65)"></path><text x="13" y="86" class="tf">first_name<tspan x="139.72" class="ty">text</tspan></text><text x="13" y="111" class="tf">last_name<tspan x="139.72" class="ty">text</tspan></text><text x="13" y="136" class="tf fk">airline_id<tspan x="139.72" class="ty">int</tspan></text><text x="13" y="161" class="tf">seat<tspan x="139.72" class="ty">text</tspan></text><text x="13" y="186" class="tf">departure<tspan x="139.72" class="ty">timestamp</tspan></text><text x="13" y="211" class="tf">arrival<tspan x="139.72" class="ty">timestamp</tspan></text><text x="13" y="236" class="tf fk">from_city<tspan x="139.72" class="ty">int</tspan></text><text x="13" y="261" class="tf fk">to_city<tspan x="139.72" class="ty">int</tspan></text></svg></g></g><text class="qdbd-link" x="10" y="20">www.quickdatabasediagrams.com</text></svg>