<svg class="diagram-root" style="background: #f5f6f6" xmlns="http://www.w3.org/2000/svg" xmlns:xlink="http://www.w3.org/1999/xlink"><style>.diagram-root { font-family: "Helvetica Neue", sans-serif; font-size: 12px; } .t { overflow: visible; } .t-bg { y: 40; fill: #fff;   } .th { fill: #005aa0;   } .tht { fill: #fff; font-size: 14px;  } .tf { fill: #323c46; overflow: visible; } .tf.pk { fill: #005aa0; font-weight: bold; } .tf.fk { font-weight: bold; } .ty { fill: #adb1b5; font-weight: normal; text-anchor: end; } .r { fill: transparent; stroke: #c3c3c3; stroke-width: 1; } .l { stroke: 1; } .i { fill: #c2c7ce; stroke: #c2c7ce; } .i.ix { fill: #afb3b6; stroke: #000; } .fa { fill: transparent; overflow: visible; } .fa .bg.hover { fill: #f7f7f7; } .c { cy: 12; r: 4; stroke: #d2d2dc; fill: #d2d2dc; } .hr { fill: transparent; stroke: #323c46; stroke-opacity: 0.035; stroke-width: 13; } .dc { stroke: #fa5a3c; fill: #fa5a3c; } .x { stroke: white; stroke-width: 1; } .hl .th { fill: #1b9bff; } .hl .tht {  } .fhl .bg { fill: #e7f4ff; } .fhls .bg {  } .r.hl { stroke: #1b9bff; } .dim { opacity: 0.25; }</style><g class="drawing-wrapper" transform="translate(-21.336666666666638, -18) scale(1,1)"><g class="rs"><path d="M 361.6666666666664 205 m -1, 0 a 1,1 0 1,0 2,0 a 1,1 0 1,0 -2,0 M 361.6666666666664 205 m -0.5, 0 a 0.5,0.5 0 1,0 1,0 a 0.5,0.5 0 1,0 -1,0  M361.6666666666664 205 L361.6666666666664 205 349.6666666666664 205 M 361.6666666666664 211 m -1, 0 a 1,1 0 1,0 2,0 a 1,1 0 1,0 -2,0 M 361.6666666666664 211 m -0.5, 0 a 0.5,0.5 0 1,0 1,0 a 0.5,0.5 0 1,0 -1,0  M361.6666666666664 211 L361.6666666666664 211 354.6666666666664 205 361.6666666666664 199 M 361.6666666666664 199 m -1, 0 a 1,1 0 1,0 2,0 a 1,1 0 1,0 -2,0 M 361.6666666666664 199 m -0.5, 0 a 0.5,0.5 0 1,0 1,0 a 0.5,0.5 0 1,0 -1,0  M349.6666666666664 205 Q 302.5 205, 255.34 165 T 161.02 124.99666666666668 M 149.02 124.99666666666668 m -1, 0 a 1,1 0 1,0 2,0 a 1,1 0 1,0 -2,0 M 149.02 124.99666666666668 m -0.5, 0 a 0.5,0.5 0 1,0 1,0 a 0.5,0.5 0 1,0 -1,0  M149.02 124.99666666666668 L149.02 124.99666666666668 161.02 124.99666666666668 M155.02 130.99666666666667 L155.02 130.99666666666667 155.02 118.99666666666668" id="h3911033004" class="r"></path><path d="M 361.6666666666664 230 m -1, 0 a 1,1 0 1,0 2,0 a 1,1 0 1,0 -2,0 M 361.6666666666664 230 m -0.5, 0 a 0.5,0.5 0 1,0 1,0 a 0.5,0.5 0 1,0 -1,0  M361.6666666666664 230 L361.6666666666664 230 349.6666666666664 230 M 361.6666666666664 236 m -1, 0 a 1,1 0 1,0 2,0 a 1,1 0 1,0 -2,0 M 361.6666666666664 236 m -0.5, 0 a 0.5,0.5 0 1,0 1,0 a 0.5,0.5 0 1,0 -1,0  M361.6666666666664 236 L361.6666666666664 236 354.6666666666664 230 361.6666666666664 224 M 361.6666666666664 224 m -1, 0 a 1,1 0 1,0 2,0 a 1,1 0 1,0 -2,0 M 361.6666666666664 224 m -0.5, 0 a 0.5,0.5 0 1,0 1,0 a 0.5,0.5 0 1,0 -1,0  M349.6666666666664 230 Q 302.5 230, 255.34 177.5 T 161.02 124.99666666666668 M 149.02 124.99666666666668 m -1, 0 a 1,1 0 1,0 2,0 a 1,1 0 1,0 -2,0 M 149.02 124.99666666666668 m -0.5, 0 a 0.5,0.5 0 1,0 1,0 a 0.5,0.5 0 1,0 -1,0  M149.02 124.99666666666668 L149.02 124.99666666666668 161.02 124.99666666666668 M155.02 130.99666666666667 L155.02 130.99666666666667 155.02 118.99666666666668" id="h2901709798" class="r"></path><path d="M 361.6666666666664 255 m -1, 0 a 1,1 0 1,0 2,0 a 1,1 0 1,0 -2,0 M 361.6666666666664 255 m -0.5, 0 a 0.5,0.5 0 1,0 1,0 a 0.5,0.5 0 1,0 -1,0  M361.6666666666664 255 L361.6666666666664 255 349.6666666666664 255 M 361.6666666666664 261 m -1, 0 a 1,1 0 1,0 2,0 a 1,1 0 1,0 -2,0 M 361.6666666666664 261 m -0.5, 0 a 0.5,0.5 0 1,0 1,0 a 0.5,0.5 0 1,0 -1,0  M361.6666666666664 261 L361.6666666666664 261 354.6666666666664 255 361.6666666666664 249 M 361.6666666666664 249 m -1, 0 a 1,1 0 1,0 2,0 a 1,1 0 1,0 -2,0 M 361.6666666666664 249 m -0.5, 0 a 0.5,0.5 0 1,0 1,0 a 0.5,0.5 0 1,0 -1,0  M349.6666666666664 255 Q 302.09 255, 254.51 249 T 159.36 242.9966666666669 M 147.36 242.9966666666669 m -1, 0 a 1,1 0 1,0 2,0 a 1,1 0 1,0 -2,0 M 147.36 242.9966666666669 m -0.5, 0 a 0.5,0.5 0 1,0 1,0 a 0.5,0.5 0 1,0 -1,0  M147.36 242.9966666666669 L147.36 242.9966666666669 159.36 242.9966666666669 M153.36 248.9966666666669 L153.36 248.9966666666669 153.36 236.9966666666669" id="h4149096453" class="r"></path><path d="M 361.6666666666664 280 m -1, 0 a 1,1 0 1,0 2,0 a 1,1 0 1,0 -2,0 M 361.6666666666664 280 m -0.5, 0 a 0.5,0.5 0 1,0 1,0 a 0.5,0.5 0 1,0 -1,0  M361.6666666666664 280 L361.6666666666664 280 349.6666666666664 280 M 361.6666666666664 286 m -1, 0 a 1,1 0 1,0 2,0 a 1,1 0 1,0 -2,0 M 361.6666666666664 286 m -0.5, 0 a 0.5,0.5 0 1,0 1,0 a 0.5,0.5 0 1,0 -1,0  M361.6666666666664 286 L361.6666666666664 286 354.6666666666664 280 361.6666666666664 274 M 361.6666666666664 274 m -1, 0 a 1,1 0 1,0 2,0 a 1,1 0 1,0 -2,0 M 361.6666666666664 274 m -0.5, 0 a 0.5,0.5 0 1,0 1,0 a 0.5,0.5 0 1,0 -1,0  M349.6666666666664 280 Q 305.75 280, 261.84 323.5 T 174.02 367.00000000000006 M 162.02 367.00000000000006 m -1, 0 a 1,1 0 1,0 2,0 a 1,1 0 1,0 -2,0 M 162.02 367.00000000000006 m -0.5, 0 a 0.5,0.5 0 1,0 1,0 a 0.5,0.5 0 1,0 -1,0  M162.02 367.00000000000006 L162.02 367.00000000000006 174.02 367.00000000000006 M168.02 373.00000000000006 L168.02 373.00000000000006 168.02 361.00000000000006" id="h1627523427" class="r"></path><path d="M 361.6666666666664 305 m -1, 0 a 1,1 0 1,0 2,0 a 1,1 0 1,0 -2,0 M 361.6666666666664 305 m -0.5, 0 a 0.5,0.5 0 1,0 1,0 a 0.5,0.5 0 1,0 -1,0  M361.6666666666664 305 L361.6666666666664 305 349.6666666666664 305 M 361.6666666666664 311 m -1, 0 a 1,1 0 1,0 2,0 a 1,1 0 1,0 -2,0 M 361.6666666666664 311 m -0.5, 0 a 0.5,0.5 0 1,0 1,0 a 0.5,0.5 0 1,0 -1,0  M361.6666666666664 311 L361.6666666666664 311 354.6666666666664 305 361.6666666666664 299 M 361.6666666666664 299 m -1, 0 a 1,1 0 1,0 2,0 a 1,1 0 1,0 -2,0 M 361.6666666666664 299 m -0.5, 0 a 0.5,0.5 0 1,0 1,0 a 0.5,0.5 0 1,0 -1,0  M349.6666666666664 305 Q 305.75 305, 261.84 336 T 174.02 367.00000000000006 M 162.02 367.00000000000006 m -1, 0 a 1,1 0 1,0 2,0 a 1,1 0 1,0 -2,0 M 162.02 367.00000000000006 m -0.5, 0 a 0.5,0.5 0 1,0 1,0 a 0.5,0.5 0 1,0 -1,0  M162.02 367.00000000000006 L162.02 367.00000000000006 174.02 367.00000000000006 M168.02 373.00000000000006 L168.02 373.00000000000006 168.02 361.00000000000006" id="h2901102647" class="r"></path></g><g class="hrs"></g><g class="ts"><svg width="169.42" height="275" x="361.6666666666664" y="48" id="h1397465888" class="t"><rect height="40" width="169.42" class="th"></rect><text x="13" y="25" class="tht">songs</text><rect height="235" width="169.42" class="t-bg"></rect><text x="13" y="61" class="tf pk">id<tspan x="156.42" class="ty">serial</tspan></text><path d="M7,14A2,2 0 0,1 5,12A2,2 0 0,1 7,10A2,2 0 0,1 9,12A2,2 0 0,1 7,14M12.65,10C11.83,7.67 9.61,6 7, 6A6, 6 0 0, 0 1, 12A6, 6 0 0, 0 7, 18C9.61, 18 11.83, 16.33 12.65, 14H17V18H21V14H23V10H12.65Z" class="i pk" transform="translate(107.74421874999999, 48) scale(0.65)"></path><text x="13" y="86" class="tf">title<tspan x="156.42" class="ty">text</tspan></text><text x="13" y="111" class="tf">duration_in_seconds<tspan x="156.42" class="ty">int</tspan></text><text x="13" y="136" class="tf">release_date<tspan x="156.42" class="ty">date</tspan></text><text x="13" y="161" class="tf fk">artist1<tspan x="156.42" class="ty">int</tspan></text><text x="13" y="186" class="tf fk">artist2<tspan x="156.42" class="ty">int</tspan></text><text x="13" y="211" class="tf fk">album_id<tspan x="156.42" class="ty">int</tspan></text><text x="13" y="236" class="tf fk">producer1<tspan x="156.42" class="ty">int</tspan></text><text x="13" y="261" class="tf fk">producer2<tspan x="156.42" class="ty">int</tspan></text></svg><svg width="104.02" height="100" x="44.99666666666666" y="67.99666666666668" id="h3332549476" class="t"><rect height="40" width="104.02" class="th"></rect><text x="13" y="25" class="tht">artists</text><rect height="60" width="104.02" class="t-bg"></rect><text x="13" y="61" class="tf pk">id<tspan x="91.02" class="ty">serial</tspan></text><path d="M7,14A2,2 0 0,1 5,12A2,2 0 0,1 7,10A2,2 0 0,1 9,12A2,2 0 0,1 7,14M12.65,10C11.83,7.67 9.61,6 7, 6A6, 6 0 0, 0 1, 12A6, 6 0 0, 0 7, 18C9.61, 18 11.83, 16.33 12.65, 14H17V18H21V14H23V10H12.65Z" class="i pk" transform="translate(42.344218749999996, 48) scale(0.65)"></path><text x="13" y="86" class="tf">name<tspan x="91.02" class="ty">text</tspan></text></svg><svg width="104.02" height="100" x="57.9966666666666" y="310.00000000000006" id="h568809404" class="t"><rect height="40" width="104.02" class="th"></rect><text x="13" y="25" class="tht">producers</text><rect height="60" width="104.02" class="t-bg"></rect><text x="13" y="61" class="tf pk">id<tspan x="91.02" class="ty">serial</tspan></text><path d="M7,14A2,2 0 0,1 5,12A2,2 0 0,1 7,10A2,2 0 0,1 9,12A2,2 0 0,1 7,14M12.65,10C11.83,7.67 9.61,6 7, 6A6, 6 0 0, 0 1, 12A6, 6 0 0, 0 7, 18C9.61, 18 11.83, 16.33 12.65, 14H17V18H21V14H23V10H12.65Z" class="i pk" transform="translate(42.344218749999996, 48) scale(0.65)"></path><text x="13" y="86" class="tf">name<tspan x="91.02" class="ty">text</tspan></text></svg><svg width="104.02" height="100" x="43.33666666666664" y="185.9966666666669" id="h4054502185" class="t"><rect height="40" width="104.02" class="th"></rect><text x="13" y="25" class="tht">albums</text><rect height="60" width="104.02" class="t-bg"></rect><text x="13" y="61" class="tf pk">id<tspan x="91.02" class="ty">serial</tspan></text><path d="M7,14A2,2 0 0,1 5,12A2,2 0 0,1 7,10A2,2 0 0,1 9,12A2,2 0 0,1 7,14M12.65,10C11.83,7.67 9.61,6 7, 6A6, 6 0 0, 0 1, 12A6, 6 0 0, 0 7, 18C9.61, 18 11.83, 16.33 12.65, 14H17V18H21V14H23V10H12.65Z" class="i pk" transform="translate(42.344218749999996, 48) scale(0.65)"></path><text x="13" y="86" class="tf">title<tspan x="91.02" class="ty">text</tspan></text></svg></g></g><text class="qdbd-link" x="10" y="20">www.quickdatabasediagrams.com</text></svg>