<svg class="diagram-root" style="background: #f5f6f6" xmlns="http://www.w3.org/2000/svg" xmlns:xlink="http://www.w3.org/1999/xlink"><style>.diagram-root { font-family: "Helvetica Neue", sans-serif; font-size: 12px; } .t { overflow: visible; } .t-bg { y: 40; fill: #fff;   } .th { fill: #005aa0;   } .tht { fill: #fff; font-size: 14px;  } .tf { fill: #323c46; overflow: visible; } .tf.pk { fill: #005aa0; font-weight: bold; } .tf.fk { font-weight: bold; } .ty { fill: #adb1b5; font-weight: normal; text-anchor: end; } .r { fill: transparent; stroke: #c3c3c3; stroke-width: 1; } .l { stroke: 1; } .i { fill: #c2c7ce; stroke: #c2c7ce; } .i.ix { fill: #afb3b6; stroke: #000; } .fa { fill: transparent; overflow: visible; } .fa .bg.hover { fill: #f7f7f7; } .c { cy: 12; r: 4; stroke: #d2d2dc; fill: #d2d2dc; } .hr { fill: transparent; stroke: #323c46; stroke-opacity: 0.035; stroke-width: 13; } .dc { stroke: #fa5a3c; fill: #fa5a3c; } .x { stroke: white; stroke-width: 1; } .hl .th { fill: #1b9bff; } .hl .tht {  } .fhl .bg { fill: #e7f4ff; } .fhls .bg {  } .r.hl { stroke: #1b9bff; } .dim { opacity: 0.25; }</style><g class="drawing-wrapper" transform="translate(2, 18) scale(1,1)"><g class="rs"><path d="M 232.5 133.67000000000002 m -1, 0 a 1,1 0 1,0 2,0 a 1,1 0 1,0 -2,0 M 232.5 133.67000000000002 m -0.5, 0 a 0.5,0.5 0 1,0 1,0 a 0.5,0.5 0 1,0 -1,0  M232.5 133.67000000000002 L232.5 133.67000000000002 220.5 133.67000000000002 M 232.5 139.67000000000002 m -1, 0 a 1,1 0 1,0 2,0 a 1,1 0 1,0 -2,0 M 232.5 139.67000000000002 m -0.5, 0 a 0.5,0.5 0 1,0 1,0 a 0.5,0.5 0 1,0 -1,0  M232.5 139.67000000000002 L232.5 139.67000000000002 225.5 133.67000000000002 232.5 127.67000000000002 M 232.5 127.67000000000002 m -1, 0 a 1,1 0 1,0 2,0 a 1,1 0 1,0 -2,0 M 232.5 127.67000000000002 m -0.5, 0 a 0.5,0.5 0 1,0 1,0 a 0.5,0.5 0 1,0 -1,0  M220.5 133.67000000000002 Q 201.88 133.67000000000002, 183.26 110.34 T 146.02 87 M 134.02 87 m -1, 0 a 1,1 0 1,0 2,0 a 1,1 0 1,0 -2,0 M 134.02 87 m -0.5, 0 a 0.5,0.5 0 1,0 1,0 a 0.5,0.5 0 1,0 -1,0  M134.02 87 L134.02 87 146.02 87 M140.02 93 L140.02 93 140.02 81" id="h3465011231" class="r"></path><path d="M 323.53 321.15999999999997 m -1, 0 a 1,1 0 1,0 2,0 a 1,1 0 1,0 -2,0 M 323.53 321.15999999999997 m -0.5, 0 a 0.5,0.5 0 1,0 1,0 a 0.5,0.5 0 1,0 -1,0  M323.53 321.15999999999997 L323.53 321.15999999999997 335.53 321.15999999999997 M 323.53 327.15999999999997 m -1, 0 a 1,1 0 1,0 2,0 a 1,1 0 1,0 -2,0 M 323.53 327.15999999999997 m -0.5, 0 a 0.5,0.5 0 1,0 1,0 a 0.5,0.5 0 1,0 -1,0  M323.53 327.15999999999997 L323.53 327.15999999999997 330.53 321.15999999999997 323.53 315.15999999999997 M 323.53 315.15999999999997 m -1, 0 a 1,1 0 1,0 2,0 a 1,1 0 1,0 -2,0 M 323.53 315.15999999999997 m -0.5, 0 a 0.5,0.5 0 1,0 1,0 a 0.5,0.5 0 1,0 -1,0  M335.53 321.15999999999997 Q 359.07 321.15999999999997, 382.6 276.16 T 429.67 231.17 M 441.67 231.17 m -1, 0 a 1,1 0 1,0 2,0 a 1,1 0 1,0 -2,0 M 441.67 231.17 m -0.5, 0 a 0.5,0.5 0 1,0 1,0 a 0.5,0.5 0 1,0 -1,0  M441.67 231.17 L441.67 231.17 429.67 231.17 M435.67 237.17 L435.67 237.17 435.67 225.17" id="h3197795845" class="r"></path><path d="M 323.53 346.15999999999997 m -1, 0 a 1,1 0 1,0 2,0 a 1,1 0 1,0 -2,0 M 323.53 346.15999999999997 m -0.5, 0 a 0.5,0.5 0 1,0 1,0 a 0.5,0.5 0 1,0 -1,0  M323.53 346.15999999999997 L323.53 346.15999999999997 335.53 346.15999999999997 M 323.53 352.15999999999997 m -1, 0 a 1,1 0 1,0 2,0 a 1,1 0 1,0 -2,0 M 323.53 352.15999999999997 m -0.5, 0 a 0.5,0.5 0 1,0 1,0 a 0.5,0.5 0 1,0 -1,0  M323.53 352.15999999999997 L323.53 352.15999999999997 330.53 346.15999999999997 323.53 340.15999999999997 M 323.53 340.15999999999997 m -1, 0 a 1,1 0 1,0 2,0 a 1,1 0 1,0 -2,0 M 323.53 340.15999999999997 m -0.5, 0 a 0.5,0.5 0 1,0 1,0 a 0.5,0.5 0 1,0 -1,0  M335.53 346.15999999999997 C 429.802 346.15999999999997, 413.2 83.67, 363.2 83.67 M 351.2 83.67 m -1, 0 a 1,1 0 1,0 2,0 a 1,1 0 1,0 -2,0 M 351.2 83.67 m -0.5, 0 a 0.5,0.5 0 1,0 1,0 a 0.5,0.5 0 1,0 -1,0  M351.2 83.67 L351.2 83.67 363.2 83.67 M357.2 89.67 L357.2 89.67 357.2 77.67" id="h2015774231" class="r"></path><path d="M 197.5 371.15999999999997 m -1, 0 a 1,1 0 1,0 2,0 a 1,1 0 1,0 -2,0 M 197.5 371.15999999999997 m -0.5, 0 a 0.5,0.5 0 1,0 1,0 a 0.5,0.5 0 1,0 -1,0  M197.5 371.15999999999997 L197.5 371.15999999999997 185.5 371.15999999999997 M 197.5 377.15999999999997 m -1, 0 a 1,1 0 1,0 2,0 a 1,1 0 1,0 -2,0 M 197.5 377.15999999999997 m -0.5, 0 a 0.5,0.5 0 1,0 1,0 a 0.5,0.5 0 1,0 -1,0  M197.5 377.15999999999997 L197.5 377.15999999999997 190.5 371.15999999999997 197.5 365.15999999999997 M 197.5 365.15999999999997 m -1, 0 a 1,1 0 1,0 2,0 a 1,1 0 1,0 -2,0 M 197.5 365.15999999999997 m -0.5, 0 a 0.5,0.5 0 1,0 1,0 a 0.5,0.5 0 1,0 -1,0  M185.5 371.15999999999997 C -132.5 371.15999999999997, -32 87, 18 87 M 30 87 m -1, 0 a 1,1 0 1,0 2,0 a 1,1 0 1,0 -2,0 M 30 87 m -0.5, 0 a 0.5,0.5 0 1,0 1,0 a 0.5,0.5 0 1,0 -1,0  M30 87 L30 87 18 87 M24 93 L24 93 24 81" id="h2133289655" class="r"></path></g><g class="hrs"></g><g class="ts"><svg width="104.02" height="100" x="30" y="30" id="h850082920" class="t"><rect height="40" width="104.02" class="th"></rect><text x="13" y="25" class="tht">regions</text><rect height="60" width="104.02" class="t-bg"></rect><text x="13" y="61" class="tf pk">id<tspan x="91.02" class="ty">serial</tspan></text><path d="M7,14A2,2 0 0,1 5,12A2,2 0 0,1 7,10A2,2 0 0,1 9,12A2,2 0 0,1 7,14M12.65,10C11.83,7.67 9.61,6 7, 6A6, 6 0 0, 0 1, 12A6, 6 0 0, 0 7, 18C9.61, 18 11.83, 16.33 12.65, 14H17V18H21V14H23V10H12.65Z" class="i pk" transform="translate(42.344218749999996, 48) scale(0.65)"></path><text x="13" y="86" class="tf">name<tspan x="91.02" class="ty">text</tspan></text></svg><svg width="118.7" height="125" x="232.5" y="26.67" id="h2948373614" class="t"><rect height="40" width="118.7" class="th"></rect><text x="13" y="25" class="tht">users</text><rect height="85" width="118.7" class="t-bg"></rect><text x="13" y="61" class="tf pk">id<tspan x="105.7" class="ty">serial</tspan></text><path d="M7,14A2,2 0 0,1 5,12A2,2 0 0,1 7,10A2,2 0 0,1 9,12A2,2 0 0,1 7,14M12.65,10C11.83,7.67 9.61,6 7, 6A6, 6 0 0, 0 1, 12A6, 6 0 0, 0 7, 18C9.61, 18 11.83, 16.33 12.65, 14H17V18H21V14H23V10H12.65Z" class="i pk" transform="translate(57.02421875, 48) scale(0.65)"></path><text x="13" y="86" class="tf">username<tspan x="105.7" class="ty">text</tspan></text><text x="13" y="111" class="tf fk">region_id<tspan x="105.7" class="ty">int</tspan></text></svg><svg width="148.06" height="100" x="441.67" y="174.17" id="h2129794260" class="t"><rect height="40" width="148.06" class="th"></rect><text x="13" y="25" class="tht">categories</text><rect height="60" width="148.06" class="t-bg"></rect><text x="13" y="61" class="tf pk">id<tspan x="135.06" class="ty">serial</tspan></text><path d="M7,14A2,2 0 0,1 5,12A2,2 0 0,1 7,10A2,2 0 0,1 9,12A2,2 0 0,1 7,14M12.65,10C11.83,7.67 9.61,6 7, 6A6, 6 0 0, 0 1, 12A6, 6 0 0, 0 7, 18C9.61, 18 11.83, 16.33 12.65, 14H17V18H21V14H23V10H12.65Z" class="i pk" transform="translate(86.38421875, 48) scale(0.65)"></path><text x="13" y="86" class="tf">category_name<tspan x="135.06" class="ty">text</tspan></text></svg><svg width="126.03" height="225" x="197.5" y="189.16" id="h2471855060" class="t"><rect height="40" width="126.03" class="th"></rect><text x="13" y="25" class="tht">posts</text><rect height="185" width="126.03" class="t-bg"></rect><text x="13" y="61" class="tf pk">id<tspan x="113.03" class="ty">serial</tspan></text><path d="M7,14A2,2 0 0,1 5,12A2,2 0 0,1 7,10A2,2 0 0,1 9,12A2,2 0 0,1 7,14M12.65,10C11.83,7.67 9.61,6 7, 6A6, 6 0 0, 0 1, 12A6, 6 0 0, 0 7, 18C9.61, 18 11.83, 16.33 12.65, 14H17V18H21V14H23V10H12.65Z" class="i pk" transform="translate(64.35421875, 48) scale(0.65)"></path><text x="13" y="86" class="tf">title<tspan x="113.03" class="ty">varchar(50)</tspan></text><text x="13" y="111" class="tf">description<tspan x="113.03" class="ty">text</tspan></text><text x="13" y="136" class="tf fk">category_id<tspan x="113.03" class="ty">int</tspan></text><text x="13" y="161" class="tf fk">user_id<tspan x="113.03" class="ty">int</tspan></text><text x="13" y="186" class="tf fk">region_id<tspan x="113.03" class="ty">int</tspan></text><text x="13" y="211" class="tf">post_date<tspan x="113.03" class="ty">date</tspan></text></svg></g></g><text class="qdbd-link" x="10" y="20">www.quickdatabasediagrams.com</text></svg>