<svg class="diagram-root" style="background: #f5f6f6" xmlns="http://www.w3.org/2000/svg" xmlns:xlink="http://www.w3.org/1999/xlink"><style>.diagram-root { font-family: "Helvetica Neue", sans-serif; font-size: 12px; } .t { overflow: visible; } .t-bg { y: 40; fill: #fff;   } .th { fill: #005aa0;   } .tht { fill: #fff; font-size: 14px;  } .tf { fill: #323c46; overflow: visible; } .tf.pk { fill: #005aa0; font-weight: bold; } .tf.fk { font-weight: bold; } .ty { fill: #adb1b5; font-weight: normal; text-anchor: end; } .r { fill: transparent; stroke: #c3c3c3; stroke-width: 1; } .l { stroke: 1; } .i { fill: #c2c7ce; stroke: #c2c7ce; } .i.ix { fill: #afb3b6; stroke: #000; } .fa { fill: transparent; overflow: visible; } .fa .bg.hover { fill: #f7f7f7; } .c { cy: 12; r: 4; stroke: #d2d2dc; fill: #d2d2dc; } .hr { fill: transparent; stroke: #323c46; stroke-opacity: 0.035; stroke-width: 13; } .dc { stroke: #fa5a3c; fill: #fa5a3c; } .x { stroke: white; stroke-width: 1; } .hl .th { fill: #1b9bff; } .hl .tht {  } .fhl .bg { fill: #e7f4ff; } .fhls .bg {  } .r.hl { stroke: #1b9bff; } .dim { opacity: 0.25; }</style><g class="drawing-wrapper" transform="translate(-59.16666666666663, 5.3333333333333215) scale(1,1)"><g class="rs"><path d="M 83.67 320.33000000000004 m -1, 0 a 1,1 0 1,0 2,0 a 1,1 0 1,0 -2,0 M 83.67 320.33000000000004 m -0.5, 0 a 0.5,0.5 0 1,0 1,0 a 0.5,0.5 0 1,0 -1,0  M83.67 320.33000000000004 L83.67 320.33000000000004 71.67 320.33000000000004 M 83.67 326.33000000000004 m -1, 0 a 1,1 0 1,0 2,0 a 1,1 0 1,0 -2,0 M 83.67 326.33000000000004 m -0.5, 0 a 0.5,0.5 0 1,0 1,0 a 0.5,0.5 0 1,0 -1,0  M83.67 326.33000000000004 L83.67 326.33000000000004 76.67 320.33000000000004 83.67 314.33000000000004 M 83.67 314.33000000000004 m -1, 0 a 1,1 0 1,0 2,0 a 1,1 0 1,0 -2,0 M 83.67 314.33000000000004 m -0.5, 0 a 0.5,0.5 0 1,0 1,0 a 0.5,0.5 0 1,0 -1,0  M71.67 320.33000000000004 C 17.67 320.33000000000004, 19.17 81.67, 69.17 81.67 M 81.17 81.67 m -1, 0 a 1,1 0 1,0 2,0 a 1,1 0 1,0 -2,0 M 81.17 81.67 m -0.5, 0 a 0.5,0.5 0 1,0 1,0 a 0.5,0.5 0 1,0 -1,0  M81.17 81.67 L81.17 81.67 69.17 81.67 M75.17 87.67 L75.17 87.67 75.17 75.67" id="h755066276" class="r"></path><path d="M 310 136.17000000000002 m -1, 0 a 1,1 0 1,0 2,0 a 1,1 0 1,0 -2,0 M 310 136.17000000000002 m -0.5, 0 a 0.5,0.5 0 1,0 1,0 a 0.5,0.5 0 1,0 -1,0  M310 136.17000000000002 L310 136.17000000000002 298 136.17000000000002 M 310 142.17000000000002 m -1, 0 a 1,1 0 1,0 2,0 a 1,1 0 1,0 -2,0 M 310 142.17000000000002 m -0.5, 0 a 0.5,0.5 0 1,0 1,0 a 0.5,0.5 0 1,0 -1,0  M310 142.17000000000002 L310 142.17000000000002 303 136.17000000000002 310 130.17000000000002 M 310 130.17000000000002 m -1, 0 a 1,1 0 1,0 2,0 a 1,1 0 1,0 -2,0 M 310 130.17000000000002 m -0.5, 0 a 0.5,0.5 0 1,0 1,0 a 0.5,0.5 0 1,0 -1,0  M298 136.17000000000002 Q 275.47 136.17000000000002, 252.94 108.92 T 207.87 81.67 M 195.87 81.67 m -1, 0 a 1,1 0 1,0 2,0 a 1,1 0 1,0 -2,0 M 195.87 81.67 m -0.5, 0 a 0.5,0.5 0 1,0 1,0 a 0.5,0.5 0 1,0 -1,0  M195.87 81.67 L195.87 81.67 207.87 81.67 M201.87 87.67 L201.87 87.67 201.87 75.67" id="h8357394" class="r"></path><path d="M 310 161.17000000000002 m -1, 0 a 1,1 0 1,0 2,0 a 1,1 0 1,0 -2,0 M 310 161.17000000000002 m -0.5, 0 a 0.5,0.5 0 1,0 1,0 a 0.5,0.5 0 1,0 -1,0  M310 161.17000000000002 L310 161.17000000000002 298 161.17000000000002 M 310 167.17000000000002 m -1, 0 a 1,1 0 1,0 2,0 a 1,1 0 1,0 -2,0 M 310 167.17000000000002 m -0.5, 0 a 0.5,0.5 0 1,0 1,0 a 0.5,0.5 0 1,0 -1,0  M310 167.17000000000002 L310 167.17000000000002 303 161.17000000000002 310 155.17000000000002 M 310 155.17000000000002 m -1, 0 a 1,1 0 1,0 2,0 a 1,1 0 1,0 -2,0 M 310 155.17000000000002 m -0.5, 0 a 0.5,0.5 0 1,0 1,0 a 0.5,0.5 0 1,0 -1,0  M298 161.17000000000002 Q 277.43 161.17000000000002, 256.86 203.25 T 215.72 245.33 M 203.72 245.33 m -1, 0 a 1,1 0 1,0 2,0 a 1,1 0 1,0 -2,0 M 203.72 245.33 m -0.5, 0 a 0.5,0.5 0 1,0 1,0 a 0.5,0.5 0 1,0 -1,0  M203.72 245.33 L203.72 245.33 215.72 245.33 M209.72 251.33 L209.72 251.33 209.72 239.33" id="h2101535807" class="r"></path><path d="M 509.17 136.16 m -1, 0 a 1,1 0 1,0 2,0 a 1,1 0 1,0 -2,0 M 509.17 136.16 m -0.5, 0 a 0.5,0.5 0 1,0 1,0 a 0.5,0.5 0 1,0 -1,0  M509.17 136.16 L509.17 136.16 497.17 136.16 M 509.17 142.16 m -1, 0 a 1,1 0 1,0 2,0 a 1,1 0 1,0 -2,0 M 509.17 142.16 m -0.5, 0 a 0.5,0.5 0 1,0 1,0 a 0.5,0.5 0 1,0 -1,0  M509.17 142.16 L509.17 142.16 502.17 136.16 509.17 130.16 M 509.17 130.16 m -1, 0 a 1,1 0 1,0 2,0 a 1,1 0 1,0 -2,0 M 509.17 130.16 m -0.5, 0 a 0.5,0.5 0 1,0 1,0 a 0.5,0.5 0 1,0 -1,0  M497.17 136.16 Q 481.06 136.16, 464.95 123.67 T 432.72 111.17 M 420.72 111.17 m -1, 0 a 1,1 0 1,0 2,0 a 1,1 0 1,0 -2,0 M 420.72 111.17 m -0.5, 0 a 0.5,0.5 0 1,0 1,0 a 0.5,0.5 0 1,0 -1,0  M420.72 111.17 L420.72 111.17 432.72 111.17 M426.72 117.17 L426.72 117.17 426.72 105.17" id="h3267507765" class="r"></path></g><g class="hrs"></g><g class="ts"><svg width="114.7" height="125" x="81.17" y="24.67" id="h2153083178" class="t"><rect height="40" width="114.7" class="th"></rect><text x="13" y="25" class="tht">doctors</text><rect height="85" width="114.7" class="t-bg"></rect><text x="13" y="61" class="tf pk">id<tspan x="101.7" class="ty">serial</tspan></text><path d="M7,14A2,2 0 0,1 5,12A2,2 0 0,1 7,10A2,2 0 0,1 9,12A2,2 0 0,1 7,14M12.65,10C11.83,7.67 9.61,6 7, 6A6, 6 0 0, 0 1, 12A6, 6 0 0, 0 7, 18C9.61, 18 11.83, 16.33 12.65, 14H17V18H21V14H23V10H12.65Z" class="i pk" transform="translate(53.02421875, 48) scale(0.65)"></path><text x="13" y="86" class="tf">name<tspan x="101.7" class="ty">text</tspan></text><text x="13" y="111" class="tf">speciality<tspan x="101.7" class="ty">text</tspan></text></svg><svg width="120.05" height="150" x="83.67" y="188.33" id="h2571196243" class="t"><rect height="40" width="120.05" class="th"></rect><text x="13" y="25" class="tht">patients</text><rect height="110" width="120.05" class="t-bg"></rect><text x="13" y="61" class="tf pk">id<tspan x="107.05" class="ty">serial</tspan></text><path d="M7,14A2,2 0 0,1 5,12A2,2 0 0,1 7,10A2,2 0 0,1 9,12A2,2 0 0,1 7,14M12.65,10C11.83,7.67 9.61,6 7, 6A6, 6 0 0, 0 1, 12A6, 6 0 0, 0 7, 18C9.61, 18 11.83, 16.33 12.65, 14H17V18H21V14H23V10H12.65Z" class="i pk" transform="translate(58.37421875, 48) scale(0.65)"></path><text x="13" y="86" class="tf">name<tspan x="107.05" class="ty">text</tspan></text><text x="13" y="111" class="tf">disease<tspan x="107.05" class="ty">text?</tspan></text><text x="13" y="136" class="tf fk">doctor_id<tspan x="107.05" class="ty">int</tspan></text></svg><svg width="110.72" height="175" x="310" y="54.17" id="h2569522486" class="t"><rect height="40" width="110.72" class="th"></rect><text x="13" y="25" class="tht">visits</text><rect height="135" width="110.72" class="t-bg"></rect><text x="13" y="61" class="tf pk">id<tspan x="97.72" class="ty">serial</tspan></text><path d="M7,14A2,2 0 0,1 5,12A2,2 0 0,1 7,10A2,2 0 0,1 9,12A2,2 0 0,1 7,14M12.65,10C11.83,7.67 9.61,6 7, 6A6, 6 0 0, 0 1, 12A6, 6 0 0, 0 7, 18C9.61, 18 11.83, 16.33 12.65, 14H17V18H21V14H23V10H12.65Z" class="i pk" transform="translate(49.04421875, 48) scale(0.65)"></path><text x="13" y="86" class="tf fk">doctor_id<tspan x="97.72" class="ty">int</tspan></text><text x="13" y="111" class="tf fk">patient_id<tspan x="97.72" class="ty">int</tspan></text><text x="13" y="136" class="tf">date<tspan x="97.72" class="ty">date</tspan></text><text x="13" y="161" class="tf">notes<tspan x="97.72" class="ty">text</tspan></text></svg><svg width="104.02" height="125" x="509.17" y="54.16" id="h3091224124" class="t"><rect height="40" width="104.02" class="th"></rect><text x="13" y="25" class="tht">diagnosis</text><rect height="85" width="104.02" class="t-bg"></rect><text x="13" y="61" class="tf pk">id<tspan x="91.02" class="ty">serial</tspan></text><path d="M7,14A2,2 0 0,1 5,12A2,2 0 0,1 7,10A2,2 0 0,1 9,12A2,2 0 0,1 7,14M12.65,10C11.83,7.67 9.61,6 7, 6A6, 6 0 0, 0 1, 12A6, 6 0 0, 0 7, 18C9.61, 18 11.83, 16.33 12.65, 14H17V18H21V14H23V10H12.65Z" class="i pk" transform="translate(42.344218749999996, 48) scale(0.65)"></path><text x="13" y="86" class="tf fk">visit_id<tspan x="91.02" class="ty">int</tspan></text><text x="13" y="111" class="tf">desc<tspan x="91.02" class="ty">text</tspan></text></svg></g></g><text class="qdbd-link" x="10" y="20">www.quickdatabasediagrams.com</text></svg>