<svg class="diagram-root" style="background: #f5f6f6" xmlns="http://www.w3.org/2000/svg" xmlns:xlink="http://www.w3.org/1999/xlink"><style>.diagram-root { font-family: "Helvetica Neue", sans-serif; font-size: 12px; } .t { overflow: visible; } .t-bg { y: 40; fill: #fff;   } .th { fill: #005aa0;   } .tht { fill: #fff; font-size: 14px;  } .tf { fill: #323c46; overflow: visible; } .tf.pk { fill: #005aa0; font-weight: bold; } .tf.fk { font-weight: bold; } .ty { fill: #adb1b5; font-weight: normal; text-anchor: end; } .r { fill: transparent; stroke: #c3c3c3; stroke-width: 1; } .l { stroke: 1; } .i { fill: #c2c7ce; stroke: #c2c7ce; } .i.ix { fill: #afb3b6; stroke: #000; } .fa { fill: transparent; overflow: visible; } .fa .bg.hover { fill: #f7f7f7; } .c { cy: 12; r: 4; stroke: #d2d2dc; fill: #d2d2dc; } .hr { fill: transparent; stroke: #323c46; stroke-opacity: 0.035; stroke-width: 13; } .dc { stroke: #fa5a3c; fill: #fa5a3c; } .x { stroke: white; stroke-width: 1; } .hl .th { fill: #1b9bff; } .hl .tht {  } .fhl .bg { fill: #e7f4ff; } .fhls .bg {  } .r.hl { stroke: #1b9bff; } .dim { opacity: 0.25; }</style><g class="drawing-wrapper" transform="translate(-8, 28.66333333333329) scale(1,1)"><g class="rs"><path d="M 222.34 133.34 m -1, 0 a 1,1 0 1,0 2,0 a 1,1 0 1,0 -2,0 M 222.34 133.34 m -0.5, 0 a 0.5,0.5 0 1,0 1,0 a 0.5,0.5 0 1,0 -1,0  M222.34 133.34 L222.34 133.34 210.34 133.34 M 222.34 139.34 m -1, 0 a 1,1 0 1,0 2,0 a 1,1 0 1,0 -2,0 M 222.34 139.34 m -0.5, 0 a 0.5,0.5 0 1,0 1,0 a 0.5,0.5 0 1,0 -1,0  M222.34 139.34 L222.34 139.34 215.34 133.34 222.34 127.34 M 222.34 127.34 m -1, 0 a 1,1 0 1,0 2,0 a 1,1 0 1,0 -2,0 M 222.34 127.34 m -0.5, 0 a 0.5,0.5 0 1,0 1,0 a 0.5,0.5 0 1,0 -1,0  M210.34 133.34 Q 194.26 133.34, 178.18 97.84 T 146.02 62.33 M 134.02 62.33 m -1, 0 a 1,1 0 1,0 2,0 a 1,1 0 1,0 -2,0 M 134.02 62.33 m -0.5, 0 a 0.5,0.5 0 1,0 1,0 a 0.5,0.5 0 1,0 -1,0  M134.02 62.33 L134.02 62.33 146.02 62.33 M140.02 68.33 L140.02 68.33 140.02 56.33" id="h1010843080" class="r"></path><path d="M 401.4 259.33000000000004 m -1, 0 a 1,1 0 1,0 2,0 a 1,1 0 1,0 -2,0 M 401.4 259.33000000000004 m -0.5, 0 a 0.5,0.5 0 1,0 1,0 a 0.5,0.5 0 1,0 -1,0  M401.4 259.33000000000004 L401.4 259.33000000000004 413.4 259.33000000000004 M 401.4 265.33000000000004 m -1, 0 a 1,1 0 1,0 2,0 a 1,1 0 1,0 -2,0 M 401.4 265.33000000000004 m -0.5, 0 a 0.5,0.5 0 1,0 1,0 a 0.5,0.5 0 1,0 -1,0  M401.4 265.33000000000004 L401.4 265.33000000000004 408.4 259.33000000000004 401.4 253.33000000000004 M 401.4 253.33000000000004 m -1, 0 a 1,1 0 1,0 2,0 a 1,1 0 1,0 -2,0 M 401.4 253.33000000000004 m -0.5, 0 a 0.5,0.5 0 1,0 1,0 a 0.5,0.5 0 1,0 -1,0  M413.4 259.33000000000004 Q 433.47 259.33000000000004, 453.54 254.17 T 493.67 249.01 M 505.67 249.01 m -1, 0 a 1,1 0 1,0 2,0 a 1,1 0 1,0 -2,0 M 505.67 249.01 m -0.5, 0 a 0.5,0.5 0 1,0 1,0 a 0.5,0.5 0 1,0 -1,0  M505.67 249.01 L505.67 249.01 493.67 249.01 M499.67 255.01 L499.67 255.01 499.67 243.01" id="h4079008523" class="r"></path><path d="M 272 309.33000000000004 m -1, 0 a 1,1 0 1,0 2,0 a 1,1 0 1,0 -2,0 M 272 309.33000000000004 m -0.5, 0 a 0.5,0.5 0 1,0 1,0 a 0.5,0.5 0 1,0 -1,0  M272 309.33000000000004 L272 309.33000000000004 260 309.33000000000004 M 272 315.33000000000004 m -1, 0 a 1,1 0 1,0 2,0 a 1,1 0 1,0 -2,0 M 272 315.33000000000004 m -0.5, 0 a 0.5,0.5 0 1,0 1,0 a 0.5,0.5 0 1,0 -1,0  M272 315.33000000000004 L272 315.33000000000004 265 309.33000000000004 272 303.33000000000004 M 272 303.33000000000004 m -1, 0 a 1,1 0 1,0 2,0 a 1,1 0 1,0 -2,0 M 272 303.33000000000004 m -0.5, 0 a 0.5,0.5 0 1,0 1,0 a 0.5,0.5 0 1,0 -1,0  M260 309.33000000000004 Q 231.51 309.33000000000004, 203.01 185.83 T 146.02 62.33 M 134.02 62.33 m -1, 0 a 1,1 0 1,0 2,0 a 1,1 0 1,0 -2,0 M 134.02 62.33 m -0.5, 0 a 0.5,0.5 0 1,0 1,0 a 0.5,0.5 0 1,0 -1,0  M134.02 62.33 L134.02 62.33 146.02 62.33 M140.02 68.33 L140.02 68.33 140.02 56.33" id="h1651128483" class="r"></path><path d="M 272 334.33000000000004 m -1, 0 a 1,1 0 1,0 2,0 a 1,1 0 1,0 -2,0 M 272 334.33000000000004 m -0.5, 0 a 0.5,0.5 0 1,0 1,0 a 0.5,0.5 0 1,0 -1,0  M272 334.33000000000004 L272 334.33000000000004 260 334.33000000000004 M 272 340.33000000000004 m -1, 0 a 1,1 0 1,0 2,0 a 1,1 0 1,0 -2,0 M 272 340.33000000000004 m -0.5, 0 a 0.5,0.5 0 1,0 1,0 a 0.5,0.5 0 1,0 -1,0  M272 340.33000000000004 L272 340.33000000000004 265 334.33000000000004 272 328.33000000000004 M 272 328.33000000000004 m -1, 0 a 1,1 0 1,0 2,0 a 1,1 0 1,0 -2,0 M 272 328.33000000000004 m -0.5, 0 a 0.5,0.5 0 1,0 1,0 a 0.5,0.5 0 1,0 -1,0  M260 334.33000000000004 Q 231.51 334.33000000000004, 203.01 198.33 T 146.02 62.33 M 134.02 62.33 m -1, 0 a 1,1 0 1,0 2,0 a 1,1 0 1,0 -2,0 M 134.02 62.33 m -0.5, 0 a 0.5,0.5 0 1,0 1,0 a 0.5,0.5 0 1,0 -1,0  M134.02 62.33 L134.02 62.33 146.02 62.33 M140.02 68.33 L140.02 68.33 140.02 56.33" id="h1564514945" class="r"></path><path d="M 272 359.33000000000004 m -1, 0 a 1,1 0 1,0 2,0 a 1,1 0 1,0 -2,0 M 272 359.33000000000004 m -0.5, 0 a 0.5,0.5 0 1,0 1,0 a 0.5,0.5 0 1,0 -1,0  M272 359.33000000000004 L272 359.33000000000004 260 359.33000000000004 M 272 365.33000000000004 m -1, 0 a 1,1 0 1,0 2,0 a 1,1 0 1,0 -2,0 M 272 365.33000000000004 m -0.5, 0 a 0.5,0.5 0 1,0 1,0 a 0.5,0.5 0 1,0 -1,0  M272 365.33000000000004 L272 365.33000000000004 265 359.33000000000004 272 353.33000000000004 M 272 353.33000000000004 m -1, 0 a 1,1 0 1,0 2,0 a 1,1 0 1,0 -2,0 M 272 353.33000000000004 m -0.5, 0 a 0.5,0.5 0 1,0 1,0 a 0.5,0.5 0 1,0 -1,0  M260 359.33000000000004 Q 243.09 359.33000000000004, 226.18 307.83 T 192.36 256.33000000000004 M 180.36 256.33000000000004 m -1, 0 a 1,1 0 1,0 2,0 a 1,1 0 1,0 -2,0 M 180.36 256.33000000000004 m -0.5, 0 a 0.5,0.5 0 1,0 1,0 a 0.5,0.5 0 1,0 -1,0  M180.36 256.33000000000004 L180.36 256.33000000000004 192.36 256.33000000000004 M186.36 262.33000000000004 L186.36 262.33000000000004 186.36 250.33000000000004" id="h3873515352" class="r"></path><path d="M 506.33 96 m -1, 0 a 1,1 0 1,0 2,0 a 1,1 0 1,0 -2,0 M 506.33 96 m -0.5, 0 a 0.5,0.5 0 1,0 1,0 a 0.5,0.5 0 1,0 -1,0  M506.33 96 L506.33 96 494.33 96 M 506.33 102 m -1, 0 a 1,1 0 1,0 2,0 a 1,1 0 1,0 -2,0 M 506.33 102 m -0.5, 0 a 0.5,0.5 0 1,0 1,0 a 0.5,0.5 0 1,0 -1,0  M506.33 102 L506.33 102 499.33 96 506.33 90 M 506.33 90 m -1, 0 a 1,1 0 1,0 2,0 a 1,1 0 1,0 -2,0 M 506.33 90 m -0.5, 0 a 0.5,0.5 0 1,0 1,0 a 0.5,0.5 0 1,0 -1,0  M494.33 96 Q 474.1 96, 453.87 165.17 T 413.4 234.33 M 401.4 234.33 m -1, 0 a 1,1 0 1,0 2,0 a 1,1 0 1,0 -2,0 M 401.4 234.33 m -0.5, 0 a 0.5,0.5 0 1,0 1,0 a 0.5,0.5 0 1,0 -1,0  M401.4 234.33 L401.4 234.33 413.4 234.33 M407.4 240.33 L407.4 240.33 407.4 228.33" id="h3142115039" class="r"></path><path d="M 506.33 121 m -1, 0 a 1,1 0 1,0 2,0 a 1,1 0 1,0 -2,0 M 506.33 121 m -0.5, 0 a 0.5,0.5 0 1,0 1,0 a 0.5,0.5 0 1,0 -1,0  M506.33 121 L506.33 121 494.33 121 M 506.33 127 m -1, 0 a 1,1 0 1,0 2,0 a 1,1 0 1,0 -2,0 M 506.33 127 m -0.5, 0 a 0.5,0.5 0 1,0 1,0 a 0.5,0.5 0 1,0 -1,0  M506.33 127 L506.33 127 499.33 121 506.33 115 M 506.33 115 m -1, 0 a 1,1 0 1,0 2,0 a 1,1 0 1,0 -2,0 M 506.33 115 m -0.5, 0 a 0.5,0.5 0 1,0 1,0 a 0.5,0.5 0 1,0 -1,0  M494.33 121 Q 456.01 121, 417.69 89.67 T 341.04 58.34 M 329.04 58.34 m -1, 0 a 1,1 0 1,0 2,0 a 1,1 0 1,0 -2,0 M 329.04 58.34 m -0.5, 0 a 0.5,0.5 0 1,0 1,0 a 0.5,0.5 0 1,0 -1,0  M329.04 58.34 L329.04 58.34 341.04 58.34 M335.04 64.34 L335.04 64.34 335.04 52.34" id="h966818545" class="r"></path></g><g class="hrs"></g><g class="ts"><svg width="104.02" height="100" x="30" y="5.33" id="h2129428134" class="t"><rect height="40" width="104.02" class="th"></rect><text x="13" y="25" class="tht">teams</text><rect height="60" width="104.02" class="t-bg"></rect><text x="13" y="61" class="tf pk">id<tspan x="91.02" class="ty">serial</tspan></text><path d="M7,14A2,2 0 0,1 5,12A2,2 0 0,1 7,10A2,2 0 0,1 9,12A2,2 0 0,1 7,14M12.65,10C11.83,7.67 9.61,6 7, 6A6, 6 0 0, 0 1, 12A6, 6 0 0, 0 7, 18C9.61, 18 11.83, 16.33 12.65, 14H17V18H21V14H23V10H12.65Z" class="i pk" transform="translate(42.344218749999996, 48) scale(0.65)"></path><text x="13" y="86" class="tf">name<tspan x="91.02" class="ty">text</tspan></text></svg><svg width="106.7" height="150" x="222.34" y="1.34" id="h2511403611" class="t"><rect height="40" width="106.7" class="th"></rect><text x="13" y="25" class="tht">players</text><rect height="110" width="106.7" class="t-bg"></rect><text x="13" y="61" class="tf pk">id<tspan x="93.7" class="ty">serial</tspan></text><path d="M7,14A2,2 0 0,1 5,12A2,2 0 0,1 7,10A2,2 0 0,1 9,12A2,2 0 0,1 7,14M12.65,10C11.83,7.67 9.61,6 7, 6A6, 6 0 0, 0 1, 12A6, 6 0 0, 0 7, 18C9.61, 18 11.83, 16.33 12.65, 14H17V18H21V14H23V10H12.65Z" class="i pk" transform="translate(45.02421875, 48) scale(0.65)"></path><text x="13" y="86" class="tf">name<tspan x="93.7" class="ty">text</tspan></text><text x="13" y="111" class="tf">position<tspan x="93.7" class="ty">text</tspan></text><text x="13" y="136" class="tf fk">team_id<tspan x="93.7" class="ty">int</tspan></text></svg><svg width="104.02" height="100" x="76.34" y="199.33" id="h441037955" class="t"><rect height="40" width="104.02" class="th"></rect><text x="13" y="25" class="tht">referees</text><rect height="60" width="104.02" class="t-bg"></rect><text x="13" y="61" class="tf pk">id<tspan x="91.02" class="ty">serial</tspan></text><path d="M7,14A2,2 0 0,1 5,12A2,2 0 0,1 7,10A2,2 0 0,1 9,12A2,2 0 0,1 7,14M12.65,10C11.83,7.67 9.61,6 7, 6A6, 6 0 0, 0 1, 12A6, 6 0 0, 0 7, 18C9.61, 18 11.83, 16.33 12.65, 14H17V18H21V14H23V10H12.65Z" class="i pk" transform="translate(42.344218749999996, 48) scale(0.65)"></path><text x="13" y="86" class="tf">name<tspan x="91.02" class="ty">text</tspan></text></svg><svg width="119.41" height="125" x="505.67" y="192.01" id="h2259709164" class="t"><rect height="40" width="119.41" class="th"></rect><text x="13" y="25" class="tht">seasons</text><rect height="85" width="119.41" class="t-bg"></rect><text x="13" y="61" class="tf pk">id<tspan x="106.41" class="ty">serial</tspan></text><path d="M7,14A2,2 0 0,1 5,12A2,2 0 0,1 7,10A2,2 0 0,1 9,12A2,2 0 0,1 7,14M12.65,10C11.83,7.67 9.61,6 7, 6A6, 6 0 0, 0 1, 12A6, 6 0 0, 0 7, 18C9.61, 18 11.83, 16.33 12.65, 14H17V18H21V14H23V10H12.65Z" class="i pk" transform="translate(57.73421875, 48) scale(0.65)"></path><text x="13" y="86" class="tf">star_date<tspan x="106.41" class="ty">date</tspan></text><text x="13" y="111" class="tf">end_date<tspan x="106.41" class="ty">date</tspan></text></svg><svg width="129.4" height="200" x="272" y="177.33" id="h1233322451" class="t"><rect height="40" width="129.4" class="th"></rect><text x="13" y="25" class="tht">games</text><rect height="160" width="129.4" class="t-bg"></rect><text x="13" y="61" class="tf pk">id<tspan x="116.4" class="ty">serial</tspan></text><path d="M7,14A2,2 0 0,1 5,12A2,2 0 0,1 7,10A2,2 0 0,1 9,12A2,2 0 0,1 7,14M12.65,10C11.83,7.67 9.61,6 7, 6A6, 6 0 0, 0 1, 12A6, 6 0 0, 0 7, 18C9.61, 18 11.83, 16.33 12.65, 14H17V18H21V14H23V10H12.65Z" class="i pk" transform="translate(67.72421875, 48) scale(0.65)"></path><text x="13" y="86" class="tf fk">season_id<tspan x="116.4" class="ty">int</tspan></text><text x="13" y="111" class="tf">game_date<tspan x="116.4" class="ty">date</tspan></text><text x="13" y="136" class="tf fk">team1<tspan x="116.4" class="ty">int</tspan></text><text x="13" y="161" class="tf fk">team2<tspan x="116.4" class="ty">int</tspan></text><text x="13" y="186" class="tf fk">referee_id<tspan x="116.4" class="ty">int</tspan></text></svg><svg width="117.38" height="150" x="506.33" y="14" id="h3636817144" class="t"><rect height="40" width="117.38" class="th"></rect><text x="13" y="25" class="tht">goals</text><rect height="110" width="117.38" class="t-bg"></rect><text x="13" y="61" class="tf pk">id<tspan x="104.38" class="ty">serial</tspan></text><path d="M7,14A2,2 0 0,1 5,12A2,2 0 0,1 7,10A2,2 0 0,1 9,12A2,2 0 0,1 7,14M12.65,10C11.83,7.67 9.61,6 7, 6A6, 6 0 0, 0 1, 12A6, 6 0 0, 0 7, 18C9.61, 18 11.83, 16.33 12.65, 14H17V18H21V14H23V10H12.65Z" class="i pk" transform="translate(55.704218749999995, 48) scale(0.65)"></path><text x="13" y="86" class="tf fk">game_id<tspan x="104.38" class="ty">int</tspan></text><text x="13" y="111" class="tf fk">player_id<tspan x="104.38" class="ty">int</tspan></text><text x="13" y="136" class="tf">num_goals<tspan x="104.38" class="ty">int</tspan></text></svg></g></g><text class="qdbd-link" x="10" y="20">www.quickdatabasediagrams.com</text></svg>